:SAMPLES-PER-SECOND 30
:FULLY-SPECIFIED
:DEGREES
51
root  35.07277421 36.53375821 -14.73106625 10.34973431 2.315685272 3.080845356
lowerback  -9.217431068 1.016909838 1.699380159
upperback  -3.77677989 0.9004539847 -2.822819948
thorax  1.323359966 0.2628009915 -3.79362011
lowerneck  -16.58239937 0.9000120163 1.345180035
upperneck  13.24409962 0.008875667118 4.492959976
head  6.774020195 0.4243399799 1.231439829
lclavicle  0 -4.497500157e-015 -2.743230041e-014
lhumerus  -42.47370148 25.61000061 71.68489838
lradius  -0.06901749223 -6.507048965e-006 27.52709961
lwrist  4.824992743e-007 -3.790274832e-007 -30.2112999
lhand  -4.412514729e-031 -36.84579849 -10.66149998
lfingers  90 7.125020027 -90
lthumb  94.78783405 -25.49959787 101.0098576
rclavicle  0 -4.497500157e-015 -2.743230041e-014
rhumerus  -7.439590931 -1.75386095 -73.31279755
rradius  -5.16745672e-007 2.214343908e-008 84.64019775
rwrist  1.380293725e-006 2.528095422e-007 -170.3869934
rhand  -1.765730159e-031 -0.7895280123 -8.124389648
rfingers  -90 -7.125020027 -90
rthumb  -86.42189644 -7.680348469 -64.92584438
rfemur  -13.30143452 14.49672127 13.56605625
rtibia  -1.092298031 1.036725163 21.14494896
rfoot  -0.7076863647 -18.06063461 -40.4112854
rtoes  4.081405523 19.59584058 -102.0109183
lfemur  -11.03935528 -17.35992813 -18.42020226
ltibia  1.897905827 1.520749927 15.78898907
lfoot  0.4425292611 -28.84415436 32.77310181
ltoes  -8.633167627 -18.1099652 -116.0327955
52
root  35.07200226 36.53404356 -14.73110529 10.35519695 2.449537992 3.08640337
lowerback  -9.255869865 1.035380125 1.679600239
upperback  -3.791320086 0.9239640236 -2.843280077
thorax  1.331279993 0.2732709944 -3.801179886
lowerneck  -16.52890015 0.8165040016 1.32554996
upperneck  13.17020035 -0.1007170156 4.524779797
head  6.743150234 0.3709840178 1.232349992
lclavicle  0 -4.497500157e-015 -2.743230041e-014
lhumerus  -42.4681015 25.65299988 71.65180206
lradius  -0.06967258453 -6.507048965e-006 27.49459839
lwrist  4.824992743e-007 -3.790274832e-007 -30.30360031
lhand  -4.408815821e-031 -36.78160095 -10.64990044
lfingers  90 7.125020027 -90
lthumb  94.75529366 -25.49032005 100.9401268
rclavicle  0 -4.497500157e-015 -2.743230041e-014
rhumerus  -6.029439449 -1.370310068 -72.83270264
rradius  -5.16745672e-007 2.214343908e-008 85.37729645
rwrist  1.380293725e-006 2.528095422e-007 -170.6959991
rhand  -1.765770877e-031 -0.8801969886 -7.945320129
rfingers  -90 -7.125020027 -90
rthumb  -86.36234611 -7.837220148 -65.0037395
rfemur  -13.27937317 14.47888851 13.58451748
rtibia  -1.099731565 1.068184137 21.14237595
rfoot  -0.7285797596 -17.99502563 -40.51820374
rtoes  4.104057644 19.59128713 -102.0784669
lfemur  -11.05047226 -17.43984032 -18.41320419
ltibia  1.910887599 1.528548956 15.78802109
lfoot  0.4388794303 -28.8549366 32.72525406
ltoes  -8.672623921 -18.09159535 -116.1597915
53
root  35.07464552 36.53346385 -14.73293455 10.36419296 2.566017389 3.068866014
lowerback  -9.29281044 1.053490043 1.616989374
upperback  -3.806070089 0.9499890208 -2.874269962
thorax  1.337849975 0.2848390043 -3.795160055
lowerneck  -16.47100067 0.7502220273 1.336599946
upperneck  13.10000038 -0.1920999438 4.542429924
head  6.712490082 0.3266029954 1.225659966
lclavicle  0 -4.497500157e-015 -2.743230041e-014
lhumerus  -42.46039963 25.53000069 71.72319794
lradius  -0.07032553852 -6.507048965e-006 27.56229973
lwrist  4.824992743e-007 -3.790274832e-007 -29.99090004
lhand  -4.409943876e-031 -36.80120087 -10.67949963
lfingers  90 7.125020027 -90
lthumb  94.77070443 -25.51869475 100.9637711
rclavicle  0 -4.497500157e-015 -2.743230041e-014
rhumerus  -4.538090229 -0.8654294014 -72.30020142
rradius  -5.16745672e-007 2.214343908e-008 86.02210236
rwrist  1.380293725e-006 2.528095422e-007 -170.6609955
rhand  -1.765817646e-031 -0.973976016 -8.001350403
rfingers  -90 -7.125020027 -90
rthumb  -86.40371753 -7.780956834 -65.09815066
rfemur  -13.25272655 14.43186665 13.60997009
rtibia  -1.088979602 1.090524912 21.1077919
rfoot  -0.7333196998 -17.96148872 -40.58675385
rtoes  4.123615587 19.58733438 -102.1368007
lfemur  -11.09820175 -17.43744087 -18.36110115
ltibia  1.888557196 1.577718377 15.83375359
lfoot  0.4465168118 -28.97709846 32.66360855
ltoes  -8.663450655 -18.09587556 -116.1302548
54
root  35.07371137 36.52958006 -14.732083 10.38651085 2.697731972 3.077211857
lowerback  -9.269319534 1.083969831 1.624459386
upperback  -3.842350006 0.986109972 -2.912389994
thorax  1.290869951 0.2996880114 -3.835690022
lowerneck  -16.40609932 0.676797986 1.325870037
upperneck  13.06270027 -0.2934620082 4.57998991
head  6.691520214 0.2781670094 1.228139997
lclavicle  0 -4.497500157e-015 -2.743230041e-014
lhumerus  -42.52819824 25.42539978 71.71330261
lradius  -0.07096355408 -6.507048965e-006 27.61440086
lwrist  4.824992743e-007 -3.790274832e-007 -29.89209747
lhand  -0 -36.79790115 -10.65089989
lfingers  90 7.125020027 -90
lthumb  94.76314173 -25.49078352 100.9576455
rclavicle  0 -4.497500157e-015 -2.743230041e-014
rhumerus  -3.056190252 -0.5646618605 -71.81529999
rradius  -5.16745672e-007 2.214343908e-008 86.55000305
rwrist  1.380293725e-006 2.528095422e-007 -170.8099976
rhand  -1.76590321e-031 -1.12548995 -8.000379562
rfingers  -90 -7.125020027 -90
rthumb  -86.43148973 -7.772974448 -65.2455909
rfemur  -13.26817036 14.39422226 13.62345219
rtibia  -1.098485112 1.111519933 21.14174271
rfoot  -0.7757339478 -17.93905067 -40.68521118
rtoes  4.099619752 19.5921813 -102.0652319
lfemur  -11.0802927 -17.52325821 -18.35957909
ltibia  1.937932968 1.626400471 15.7581892
lfoot  0.4702532291 -29.0292263 32.68761444
ltoes  -8.63785558 -18.1077881 -116.0478779
